<?xml version="1.0" encoding="UTF-8" standalone="no"?>
<svg width="614px" height="138px" viewBox="0 0 614 138" version="1.1" xmlns="http://www.w3.org/2000/svg" xmlns:xlink="http://www.w3.org/1999/xlink">
    <!-- Generator: Sketch 46.2 (44496) - http://www.bohemiancoding.com/sketch -->
    <title>Group 2</title>
    <desc>Created with Sketch.</desc>
    <defs>
        <text id="text-1" font-family="Pacifico-Regular, Pacifico" font-size="72" font-style="italic" font-weight="normal" fill="#E8618C">
            <tspan x="0.608" y="103">Mister</tspan>
        </text>
        <filter x="-0.9%" y="-0.8%" width="102.2%" height="103.1%" filterUnits="objectBoundingBox" id="filter-2">
            <feOffset dx="2" dy="2" in="SourceAlpha" result="shadowOffsetOuter1"></feOffset>
            <feColorMatrix values="0 0 0 0 0.992156863   0 0 0 0 0.721568627   0 0 0 0 0.462745098  0 0 0 1 0" type="matrix" in="shadowOffsetOuter1"></feColorMatrix>
        </filter>
        <text id="text-3" font-family="Pacifico-Regular, Pacifico" font-size="72" font-style="italic" font-weight="normal" fill="#E8618C">
            <tspan x="366" y="103">Melty’s</tspan>
        </text>
        <filter x="-0.8%" y="-0.8%" width="102.0%" height="103.1%" filterUnits="objectBoundingBox" id="filter-4">
            <feOffset dx="2" dy="2" in="SourceAlpha" result="shadowOffsetOuter1"></feOffset>
            <feColorMatrix values="0 0 0 0 0.992156863   0 0 0 0 0.721568627   0 0 0 0 0.462745098  0 0 0 1 0" type="matrix" in="shadowOffsetOuter1"></feColorMatrix>
        </filter>
    </defs>
    <g id="Page-1" stroke="none" stroke-width="1" fill="none" fill-rule="evenodd">
        <g id="Desktop" transform="translate(-205.000000, -70.000000)">
            <g id="Group-2" transform="translate(206.000000, 70.000000)">
                <g id="ice-cream-(1)" transform="translate(250.000000, 0.000000)" fill-rule="nonzero">
                    <path d="M84,49 L12,49 L43.6330549,130.027904 C45.1801319,133.990699 50.8198681,133.990699 52.3669451,130.027904 L84,49 Z" id="Shape" fill="#BD9D7D"></path>
                    <path d="M84,49 L12,49 L43.6330549,130.027904 C45.1801319,133.990699 50.8198681,133.990699 52.3669451,130.027904 L84,49 Z" id="Shape" fill="#FDB876"></path>
                    <g id="Group" opacity="0.1" transform="translate(33.000000, 71.000000)" fill="#000000">
                        <path d="M2.11151515,22.9314098 C1.60753535,22.9314098 1.10329293,22.7394098 0.718808081,22.3554098 C-0.0504242424,21.5868852 -0.0504242424,20.3415082 0.718808081,19.5732459 L17.2994545,3.0132459 C18.0686869,2.2452459 19.315899,2.2452459 20.0848687,3.0132459 C20.854101,3.78177049 20.854101,5.02714754 20.0848687,5.79540984 L3.50422222,22.3554098 C3.11973737,22.7391475 2.61549495,22.9314098 2.11151515,22.9314098 Z" id="Shape"></path>
                        <path d="M6.39179798,31.9561967 C5.88781818,31.9561967 5.38357576,31.7641967 4.99909091,31.3801967 C4.22985859,30.6116721 4.22985859,29.3662951 4.99909091,28.5980328 L22.4773939,11.1417705 C23.2466263,10.3735082 24.4938384,10.3740328 25.2628081,11.1417705 C26.0320404,11.9102951 26.0320404,13.1556721 25.2628081,13.9239344 L7.78450505,31.3801967 C7.4000202,31.7641967 6.89577778,31.9561967 6.39179798,31.9561967 Z" id="Shape"></path>
                        <path d="M20.897697,31.9561967 C20.3937172,31.9561967 19.8894747,31.7641967 19.5049899,31.3801967 L1.31339394,13.211541 C0.544161616,12.4430164 0.544161616,11.1976393 1.31339394,10.429377 C2.08262626,9.66137705 3.32983838,9.66137705 4.09880808,10.429377 L22.2906667,28.5982951 C23.059899,29.3668197 23.059899,30.6121967 22.2906667,31.380459 C21.9059192,31.7641967 21.4019394,31.9561967 20.897697,31.9561967 Z" id="Shape"></path>
                        <path d="M23.8703636,21.624918 C23.3663838,21.624918 22.8621414,21.432918 22.4776566,21.048918 L4.99935354,3.59265574 C4.23012121,2.82413115 4.23012121,1.5787541 4.99935354,0.810491803 C5.76858586,0.0424918033 7.01579798,0.0424918033 7.78476768,0.810491803 L25.2630707,18.2667541 C26.032303,19.0352787 26.032303,20.2806557 25.2630707,21.048918 C24.8783232,21.432918 24.3743434,21.624918 23.8703636,21.624918 Z" id="Shape"></path>
                    </g>
                    <path d="M38,113 L44.981753,131.772221 C46.5824317,136.075926 52.4175683,136.075926 54.018247,131.772221 L61,113 L38,113 Z" id="Shape" fill="#BD9D7D"></path>
                    <path d="M74.395995,49 L43,128.980634 L43.4110395,130.027904 C44.9666253,133.990699 50.6373797,133.990699 52.1929654,130.027904 L84,49 L74.395995,49 Z" id="Shape" fill="#000000" opacity="0.1"></path>
                    <path d="M90.4549942,41.8143806 C89.430315,41.8146481 88.5704029,41.0511953 88.5243651,40.0341499 C87.5879925,19.423866 70.4742888,3 49.4998654,3 C28.5380957,3 11.4324688,19.4043383 10.4772503,39.9972345 C10.4298663,41.01749 9.57076191,41.8146481 8.54285201,41.8146481 L8.54285201,41.8146481 C5.48146819,41.8146481 3,44.2804884 3,47.3219946 L3,47.4873113 C3,50.5288175 5.48173741,52.9946578 8.54285201,52.9946578 L21.8434892,52.9946578 C24.234497,52.9946578 26.1723952,54.9204101 26.1723952,57.2958344 L26.1723952,64.5673615 C26.1723952,68.1200655 29.0708965,71 32.6465045,71 L32.6465045,71 C36.2221125,71 39.1206138,68.1200655 39.1206138,64.5673615 L39.1206138,57.2958344 C39.1206138,54.9204101 41.0587813,52.9946578 43.4495199,52.9946578 L58.9039756,52.9946578 C61.2949834,52.9946578 63.2331509,54.9204101 63.2331509,57.2958344 L63.2331509,57.2958344 C63.2331509,60.8485384 66.1316522,63.7284729 69.7072602,63.7284729 L69.7072602,63.7284729 C73.2828682,63.7284729 76.1813695,60.8485384 76.1813695,57.2958344 L76.1813695,57.2958344 C76.1813695,54.9204101 78.1195369,52.9946578 80.5105447,52.9946578 L90.457148,52.9946578 C93.5185318,52.9946578 96,50.5288175 96,47.4873113 L96,47.3219946 C96,44.2796859 93.5171857,41.8135781 90.4549942,41.8143806 Z" id="Shape" fill="#FFE584"></path>
                    <path d="M88.4767127,41.8187359 C87.456047,41.8190034 86.5995031,41.0554649 86.5536455,40.0383053 C85.6209405,19.4257088 68.5742675,3 47.6819963,3 C46.7803993,3 45.8863111,3.032639 45,3.09283387 C64.6508992,4.42782234 80.2969056,20.3152553 81.1893847,40.0383053 C81.2355105,41.0554649 82.0920544,41.8190034 83.112452,41.8187359 C86.1626495,41.8176657 88.6357392,44.2840502 88.6357392,47.3267003 L88.6357392,47.4920355 C88.6357392,50.533883 86.1637222,53 83.1145974,53 L88.4788581,53 C91.5282512,53 94,50.533883 94,47.4920355 L94,47.3267003 C94,44.2843178 91.5269103,41.8179333 88.4767127,41.8187359 Z" id="Shape" fill="#000000" opacity="0.1"></path>
                    <path d="M75.3048897,12.3466413 C67.9240473,5.02969653 58.2270598,1 48,1 C37.7797663,1 28.0869794,5.02507999 20.7077124,12.3341495 C16.4886629,16.5126615 13.2727864,21.5169912 11.2086814,27.0060576 C10.6373901,28.5248993 11.2751046,30.2634341 12.6815419,30.9980071 C16.7152367,33.1047788 22.038275,31.8854691 24.5767933,27.3373622 L24.5767933,27.3373622 C28.8887826,22.8772412 35.8802752,22.8772412 40.1922644,27.3373622 L40.1922644,27.3373622 C43.6622816,33.5542126 52.3377184,33.5542126 55.8077356,27.3373622 L55.8077356,27.3373622 C59.2777527,21.1205118 67.952927,21.1205118 71.4232067,27.3373622 L71.4232067,27.3373622 C73.961725,31.8851975 79.2845008,33.1045073 83.3184581,30.9980071 C84.7248954,30.2634341 85.3626099,28.5251709 84.7913186,27.0063291 C82.7293139,21.5229655 79.5181631,16.5232524 75.3048897,12.3466413 Z" id="Shape" fill="#E8618C"></path>
                    <path d="M86.7819725,27.0064576 C84.6264372,21.5216776 81.2696314,16.5201536 76.8655221,12.3422567 C69.312915,5.17816857 59.4406511,1.16706155 49,1 C57.4577453,2.20963427 65.3188349,5.98441032 71.5834451,11.9271835 C75.9878289,16.1050804 79.3443602,21.1066043 81.4998955,26.5913844 C82.0971001,28.1106937 81.4304595,29.8497637 79.9602274,30.5842912 C79.2071349,30.9605192 78.4106792,31.2289043 77.5958352,31.3929777 C80.0647931,32.317385 82.8672086,32.1859089 85.24203,30.9990928 C86.7125365,30.2645653 87.3789026,28.5257669 86.7819725,27.0064576 Z" id="Shape" fill="#000000" opacity="0.1"></path>
                    <path d="M28.1367463,36.9973848 L28.1367463,39.9548593 C28.1367463,41.0553458 29.0311347,41.9470507 30.134338,41.9470507 C31.2375414,41.9470507 32.1319298,41.0553458 32.1319298,39.9548593 L32.1319298,36.9973848 C32.1319298,35.8968982 31.2375414,35.0051934 30.134338,35.0051934 C29.0311347,35.0051934 28.1367463,35.8971639 28.1367463,36.9973848 Z M93.8079759,42.1151916 C92.4133905,40.7249077 90.5660176,39.9514062 88.5961258,39.930953 C88.4443088,36.8069313 87.9260003,33.7118627 87.0622416,30.7129506 C87.6300904,29.4939951 87.7129239,28.0580236 87.1863587,26.707849 C84.9589106,20.9966348 81.5598085,15.9314217 77.0830721,11.6521946 C69.2210835,4.13817996 58.8927349,0 48,0 C40.9431741,0 33.9689153,1.77305034 27.8309815,5.12710376 C26.8636144,5.65569855 26.5088421,6.86668529 27.0391362,7.83143717 C27.5691638,8.79645468 28.7834333,9.1505335 29.7508004,8.62140746 C35.3019748,5.58769841 41.6125005,3.98438278 48,3.98438278 C57.8574496,3.98438278 67.2043148,7.72917135 74.318405,14.528919 C78.3713856,18.4028016 81.4479433,22.9864355 83.4625812,28.152055 C83.6700644,28.6843685 83.436213,29.3008854 82.9296237,29.5558859 C80.1718817,30.9445761 76.7514718,30.3995125 74.6113852,28.2304145 C73.8373849,27.4460224 72.5727762,27.4359286 71.786524,28.2078363 C71.0002719,28.9794785 70.9901508,30.2409341 71.7638847,31.0250606 C73.875206,33.1646741 76.77784,34.2957076 79.7108375,34.2957076 C81.0529528,34.2957076 82.4001287,34.0550509 83.6817836,33.5694874 C84.1952979,35.7579761 84.5093193,37.9932148 84.6113297,40.2449224 C84.7045506,42.3032545 86.4195498,43.9148045 88.5154231,43.9148045 C88.5164885,43.9145389 88.5175538,43.9145389 88.5188856,43.9148045 C89.4497633,43.9148045 90.3249749,44.2763209 90.9833811,44.9326815 C91.6420537,45.5895734 92.0048164,46.4626845 92.0048164,47.3915769 L92.0048164,47.5557335 C92.0048164,49.4727529 90.4408352,51.0322403 88.5188856,51.0322403 L78.6787484,51.0322403 C75.2157233,51.0322403 72.3983198,53.8417614 72.3983198,57.2954244 C72.3983198,59.7189916 70.4212366,61.6907299 67.9910996,61.6907299 C65.5609626,61.6907299 63.5838794,59.7189916 63.5838794,57.2954244 C63.5838794,53.8417614 60.766476,51.0322403 57.3034508,51.0322403 L42.014416,51.0322403 C38.5516572,51.0322403 35.7342537,53.8417614 35.7342537,57.2954244 L35.7342537,64.5161885 C35.7342537,66.9397557 33.7571705,68.911494 31.3270335,68.911494 C28.8968965,68.911494 26.9198133,66.9397557 26.9198133,64.5161885 L26.9198133,57.2954244 C26.9198133,53.8417614 24.1024099,51.0322403 20.6393847,51.0322403 L7.48111443,51.0322403 C5.55889844,51.0322403 3.99518358,49.4727529 3.99518358,47.5557335 L3.99518358,47.3915769 C3.99518358,45.4745576 5.55916478,43.9148045 7.48111443,43.9148045 C9.57725409,43.9148045 11.2941176,42.287317 11.3902684,40.2101254 C11.4938768,37.9709023 11.8070992,35.7481479 12.3176837,33.5713468 C13.6153193,34.0672697 14.9619625,34.3095201 16.2950221,34.3095201 C20.0734004,34.3095201 23.735652,32.3940945 25.8198061,28.9970098 C29.3632676,25.6384407 34.9522631,25.6381751 38.4962573,28.9967441 C40.5359317,32.3274225 44.0671413,34.3065983 47.9997337,34.3065983 C47.9997337,34.3065983 47.9994673,34.3065983 48,34.3065983 C52.0284768,34.3065983 55.6366602,32.2291411 57.6507655,28.7497124 C59.839327,24.96933 64.270252,24.4101883 67.289279,26.053879 C68.2577115,26.5811457 69.471182,26.2254731 69.9996116,25.2599243 C70.5283075,24.2938443 70.1716708,23.0839201 69.2032383,22.5566534 C63.8393048,19.6368977 57.2445885,21.481667 54.1906701,26.757521 C52.8983614,28.9895722 50.5840847,30.3222155 47.9997337,30.3222155 C45.4153826,30.3222155 43.1011059,28.9895722 41.8087972,26.757521 C41.7214358,26.6069113 41.6146313,26.4679892 41.4913133,26.3450046 C38.9983187,23.8584841 35.683648,22.4891845 32.1580317,22.4891845 C28.6324154,22.4891845 25.3177447,23.8582185 22.8247502,26.344739 C22.7014322,26.4679892 22.5946276,26.6066457 22.5072662,26.757521 C20.3884872,30.4167782 16.0449236,31.0542794 13.0698436,29.5556202 C12.5635206,29.3006197 12.3294029,28.6838373 12.5368861,28.1515237 C14.5536548,22.9803261 17.634474,18.393239 21.6933142,14.5172315 C22.0803143,14.1474808 22.4787673,13.7827769 22.8772202,13.4329481 C23.7050223,12.7056654 23.7851923,11.4466005 23.0559381,10.6210364 C22.3266839,9.79547226 21.0644723,9.71551898 20.2366702,10.442536 C19.7969337,10.8290212 19.3574635,11.2314438 18.9305115,11.639179 C14.4471165,15.9205311 11.0434865,20.9899941 8.81364133,26.7073178 C8.28707614,28.0574923 8.36964326,29.4937295 8.93775837,30.712685 C8.07373333,33.7115971 7.55569119,36.8069313 7.40387422,39.930953 C3.31413796,39.9721249 0,43.303069 0,47.3915769 L0,47.5557335 C0,51.6694759 3.35622056,55.0166231 7.48111443,55.0166231 L11.8760827,55.0166231 L29.5830027,100.513228 C29.8898328,101.302135 30.6454552,101.785043 31.4458236,101.785043 C31.6860674,101.785043 31.9305726,101.74148 32.1681528,101.649574 C33.1965131,101.251401 33.7068312,100.096992 33.3075792,99.0714122 L16.1618493,55.0166231 L20.6396511,55.0166231 C21.899732,55.0166231 22.9248961,56.0390157 22.9248961,57.2954244 L22.9248961,64.5161885 C22.9248961,69.1367444 26.6942186,72.8958767 31.3272999,72.8958767 C35.9603811,72.8958767 39.7297036,69.1367444 39.7297036,64.5161885 L39.7297036,57.2954244 C39.7297036,56.0390157 40.7548677,55.0166231 42.0146823,55.0166231 L57.3037172,55.0166231 C58.5637981,55.0166231 59.5889622,56.0390157 59.5889622,57.29569 C59.5889622,61.9162459 63.3582847,65.6751126 67.991366,65.6751126 C72.6244472,65.6751126 76.3937697,61.9162459 76.3937697,57.2954244 C76.3937697,56.0390157 77.4189338,55.0166231 78.6790147,55.0166231 L79.8386834,55.0166231 L57.8579823,111.494452 L38.1428167,111.494452 L36.4280839,107.088522 C36.0290983,106.062942 34.8718267,105.554269 33.8429338,105.952176 C32.8145735,106.350348 32.3042554,107.504757 32.7035074,108.530337 L41.7280945,131.717851 C42.740474,134.319122 45.2023061,136 48.0002663,136 L48,136 C50.7976939,136 53.2600587,134.319122 54.2724382,131.717851 L84.1239173,55.0166231 L88.5188856,55.0166231 C92.6440458,55.0166231 96,51.6694759 96,47.5557335 L96,47.3915769 C96,45.3985887 95.2214719,43.524335 93.8079759,42.1151916 Z M50.5478617,130.276301 C49.9195525,131.890508 48.4389375,132.015883 48,132.015883 C47.5610625,132.015883 46.0801811,131.890242 45.4521383,130.276301 L39.6932143,115.479101 L56.3070521,115.479101 L50.5478617,130.276301 Z M65.865662,35.0051934 C64.7624586,35.0051934 63.8680702,35.8968982 63.8680702,36.9973848 L63.8680702,39.9548593 C63.8680702,41.0553458 64.7624586,41.9470507 65.865662,41.9470507 C66.9688653,41.9470507 67.8632537,41.0553458 67.8632537,39.9548593 L67.8632537,36.9973848 C67.8632537,35.8971639 66.9688653,35.0051934 65.865662,35.0051934 Z M51.2044036,38.7770757 C50.3952457,39.7027807 49.2273204,40.2337661 48,40.2337661 C46.7729459,40.2337661 45.6047543,39.7027807 44.7955964,38.7770757 C44.0706038,37.9477929 42.8089248,37.8611989 41.9771276,38.5842316 C41.1455967,39.3072643 41.0590344,40.5655324 41.7837607,41.3948152 C43.3520034,43.1891156 45.6175389,44.2181489 47.9997337,44.2181489 C50.3819285,44.2181489 52.6477302,43.1891156 54.2157066,41.3948152 C54.9406993,40.5655324 54.8538706,39.3072643 54.0223397,38.5842316 C53.1913415,37.8614646 51.9293962,37.9475272 51.2044036,38.7770757 Z" id="Shape" fill="#000000"></path>
                </g>
                <g id="Mister" fill-opacity="1" fill="#E8618C">
                    <use filter="url(#filter-2)" xlink:href="#text-1"></use>
                    <use xlink:href="#text-1"></use>
                </g>
                <g id="Melty’s" fill-opacity="1" fill="#E8618C">
                    <use filter="url(#filter-4)" xlink:href="#text-3"></use>
                    <use xlink:href="#text-3"></use>
                </g>
            </g>
        </g>
    </g>
</svg>